<?xml version="1.0" standalone="no"?>
<!DOCTYPE svg PUBLIC "-//W3C//DTD SVG 20010904//EN"
 "http://www.w3.org/TR/2001/REC-SVG-20010904/DTD/svg10.dtd">
<svg version="1.0" xmlns="http://www.w3.org/2000/svg"
 width="429.000000pt" height="424.000000pt" viewBox="0 0 429.000000 424.000000"
 preserveAspectRatio="xMidYMid meet">

<g transform="translate(0.000000,424.000000) scale(0.100000,-0.100000)"
fill="#000000" stroke="none">
<path d="M0 2120 l0 -2120 2145 0 2145 0 0 2120 0 2120 -2145 0 -2145 0 0
-2120z m2496 1899 c540 -52 1019 -319 1342 -748 428 -567 495 -1338 173 -1976
-266 -526 -746 -889 -1332 -1007 -100 -20 -144 -23 -349 -23 -207 0 -249 3
-350 23 -449 91 -847 331 -1121 677 -52 64 -63 73 -138 104 -159 64 -298 193
-381 353 -59 112 -82 209 -82 343 0 173 49 319 151 455 28 37 41 65 41 86 0
107 65 376 127 524 19 47 35 90 36 96 0 13 277 38 287 27 4 -5 22 -52 39 -105
23 -70 36 -95 46 -92 8 3 12 11 9 18 -3 7 37 53 89 103 97 93 207 172 266 192
43 14 169 14 245 0 32 -6 59 -9 60 -7 2 2 -22 73 -52 159 l-54 157 -76 6
c-107 10 -241 -7 -310 -39 -63 -29 -216 -142 -277 -204 -21 -23 -42 -41 -46
-41 -11 0 -67 181 -74 240 -8 70 19 178 73 294 l39 82 152 13 c115 9 166 9
210 0 58 -11 58 -11 117 27 87 56 250 130 382 174 254 84 505 114 758 89z
m-1678 -316 c-10 -2 -26 -2 -35 0 -10 3 -2 5 17 5 19 0 27 -2 18 -5z m-120
-10 c-10 -2 -26 -2 -35 0 -10 3 -2 5 17 5 19 0 27 -2 18 -5z m-115 -10 c-7 -2
-21 -2 -30 0 -10 3 -4 5 12 5 17 0 24 -2 18 -5z m-138 -12 c-27 -6 -31 -13
-57 -96 -16 -50 -35 -127 -44 -173 -20 -107 -9 -180 50 -355 30 -86 40 -129
33 -132 -7 -2 -49 -6 -93 -9 l-81 -6 -39 42 c-56 62 -99 134 -124 208 -18 52
-21 81 -18 150 5 96 27 163 86 257 66 107 58 101 163 111 52 5 108 9 124 9
l30 1 -30 -7z m78 -748 c-7 -2 -19 -2 -25 0 -7 3 -2 5 12 5 14 0 19 -2 13 -5z"/>
<path d="M2084 2789 c-88 -25 -177 -158 -208 -311 -61 -298 76 -618 264 -618
104 0 206 108 254 269 9 30 16 56 16 57 0 1 -50 44 -110 94 -61 50 -108 95
-105 99 2 5 47 43 100 87 106 87 104 79 52 177 -63 121 -162 176 -263 146z"/>
<path d="M3306 2742 l-38 -17 -3 -165 c-2 -191 -19 -266 -89 -415 -23 -50 -41
-95 -39 -100 2 -6 -18 -21 -43 -35 -99 -52 -131 -168 -68 -247 65 -82 196
-112 306 -70 50 20 104 72 114 111 3 14 28 43 55 66 58 48 101 119 129 209 15
46 17 67 10 76 -6 7 -56 51 -110 96 -114 96 -116 77 14 184 94 77 92 73 51
160 -63 132 -184 194 -289 147z"/>
<path d="M1371 1722 c-46 -48 -75 -126 -74 -199 2 -227 350 -484 783 -579 119
-26 406 -27 500 -1 206 57 298 147 308 304 l5 73 -36 34 c-48 45 -93 55 -336
72 -357 25 -422 43 -748 206 -213 108 -248 122 -303 126 -60 4 -61 4 -99 -36z"/>
</g>
</svg>
